<svg id="eng_white" data-name="eng white" xmlns="http://www.w3.org/2000/svg" viewBox="0 0 561.38 229.11"><defs><style>.cls-1{fill:#fff;}</style></defs><g id="Pmuk4K"><path class="cls-1" d="M480.63,125.12c1.12,4.18.52,5.09-1.11,8.59-3.5,7.5-8.62,13.91-16.48,17-7.7,3.08-15.33,1.38-22.48-2.46a35.76,35.76,0,0,1-6.93-4.5c-8.87-7.84-10.32-17.94-9.09-28.92a38.94,38.94,0,0,1,9.06-21.39C438.38,88,444.69,83.57,452,82.18c5.51-1.05,11,1.19,16,3.53,7.43,3.44,10.91,9.76,12.27,17.56a46.28,46.28,0,0,1,.57,12.3H438.83c-1,5.72-1.37,11.09,1.21,16.23,1.51,3,2.75,6.18,5.48,8.49,5.88,5,13.63,3.56,17.86-3,3-4.7,3.28-6.68,2.79-12.21Zm-40.17-13.83h25.63c.25-9.88,0-11.53-2.43-17s-8.08-7.34-13.1-4C443.27,95.19,441.7,103,440.46,111.29Z"/><path class="cls-1" d="M271.45,124.79c-.19,8.31-3.13,15.63-9.4,20.49-7.28,5.63-15.33,9.84-24.85,8.42-6.64-1-13-3.52-17.82-8.44-2.47-2.5-3.15-6.24-4.13-9.55A44.29,44.29,0,0,1,220,98.8Q228.3,85,244.18,83.6a19.94,19.94,0,0,1,12.52,3.26c7.78,4.91,13.31,11.43,14.44,20.9.29,2.41.87,3.74-.13,7.57-13.87,0-29.67-.13-44-.13a39.89,39.89,0,0,0-.09,11.17c.59,4.66,1.4,9.25,3.68,13.49,5.15,9.59,17.23,8.11,22.27.56,2.48-3.71,4.13-9.35,4.78-13.73.32-2.19.23-2.11.23-2.11m-30.39-14.35c8.52,0,16.95,0,25.38,0,1.21,0,4.75,0,4.75,0,.37-7.37-3.45-13-7.2-17-3-3.21-7.64-2.79-11.46-1.12-4.59,2-6.91,6.44-9.23,10.6C228.52,105,227.17,107.31,227.52,110.23Z"/><path class="cls-1" d="M161,153.58H149.46c0-7.59,0-15,0-22.41,0-11.89,0-23.77-.11-35.66,0-2.09.84-3.14,2.46-4.47,10.51-8.61,22.59-8.17,34.71-5.8,6.59,1.29,10.84,5.84,13.16,12.64,2.39,8.78,2.88,19.63,2.75,31.5-.6,8-1,16-1.49,24.18h-12v-26.7c0-6.67,0-13.34,0-20a12.65,12.65,0,0,0-11.43-12.6c-2.69-.24-5.4-.35-8.1-.32-5.31,0-8.15,3.44-8.12,8.74.11,16.64,0,33.27,0,49.9A5,5,0,0,1,161,153.58Z"/><path class="cls-1" d="M507.17,152.45H494.66c0-46.21-.05-94.43-.05-141.22,4.26,4.85,8.14,9.25,12,13.67a3.57,3.57,0,0,1,.6,2.57q0,60.5,0,121C507.2,149,507.2,151.67,507.17,152.45Z"/><path class="cls-1" d="M11.53,220.53A17.8,17.8,0,0,1,8,215.8c10.51-20.4,22-40.27,32-60.9-9.81-19.75-19.48-52.3-29.36-72.21H29.19c4.37,17,11.58,47.15,16.21,65.22C55.87,130.06,70.54,99.8,80.63,82.6c2.29-.2,4.44-.52,7.28.4C63.9,124.63,35.47,179,11.53,220.53Z"/><path class="cls-1" d="M125.29,124.65c5.35,0,13.52-.1,13.52-.1a21.29,21.29,0,0,1-.53,5c-3.51,10.43-8.72,19.14-20.56,22.14-4.8,1.21-9.48,3.09-14.31,1.62-7.5-2.29-14.08-5.37-17.52-13.84-3-7.48-4.16-12.91-2.48-19.48,1.38-5.4,2.45-11,4.72-16a38.72,38.72,0,0,1,14.53-16.67,22.28,22.28,0,0,1,18.82-2.87c6,1.64,9.34,5.63,12.94,9.82A19.9,19.9,0,0,1,138.74,106a51.24,51.24,0,0,1-.34,9.07s-5.82.13-10.29.12c-9.37,0-18.75,0-28.12,0-1.09,0-3-.09-3-.09a43.54,43.54,0,0,0-1.13,5.41c-.56,6.32.1,12.41,3.29,18.12,2.86,5.12,5.65,7.94,11.54,7.69s9.77-3.2,12.36-8.53C125.22,133.39,125.29,130.57,125.29,124.65ZM126,110.3c.21-5.59.53-10.78-2.56-15.54-3.2-4.93-10.84-6.76-15.61-3.35-4.45,2.9-9.67,16.46-9.16,18.89Z"/><path class="cls-1" d="M536,152.45H525.1c0-22.09.52-41,.52-63.36h-8.34V83.4c2.39-1,4.92,0,7.25-.66,1.08-7.13-1.11-14.46,1.69-22L536,71.28V81.9h15.63v7h-15.1C536.52,111.26,536,130.16,536,152.45Z"/><path class="cls-1" d="M364.26,82.55H380c5.22,19.64,10.43,39.24,15.94,59.94l23.72-59.94h4.5L397.1,154.18C392.82,150.13,363.32,85.12,364.26,82.55Z"/></g></svg>