<svg id="yid_white" data-name="yid white" xmlns="http://www.w3.org/2000/svg" viewBox="0 0 561.26 154.55"><defs><style>.cls-1{fill:#fff;}</style></defs><path class="cls-1" d="M463.71,55.34l-4.77-11.63c3.5-6.33,13.34-9.5,19.63-6.31a4.86,4.86,0,0,1,2.5,3.1Q486.71,59.27,492.33,78c1.87,6.24,4.5,14.08,6.42,20.53.68-.56,4.8-3.46,5.28-3.86,1.21-11.75,3.63-23.07,4.76-34.76.17-1.73.66-4.41.4-6.14-.47-3.18-7.24-4.85-10.15-3-.7.44-2.09,1.86-3.13,2.62C494.25,49,494,44.59,493,40.48a18.94,18.94,0,0,1,21.21-4c3.88,3,5.62,7.3,5.06,12.46-1,9.58-4.24,18.67-6,28.08s-3.82,17.36-4.81,27.08c-21.13,13.32-45.72,28.17-66.89,41.52-.61-.92.33-2.62.33-2.62l11.15-13.75s8.49-5.81,12.8-8.65c10.84-7.15,19.47-13.16,30.47-20.42-3.3-6.83-6.54-13.59-9.82-20.33-3.88-8-7.83-15.95-11.67-24a5.32,5.32,0,0,0-9-1.45A2.26,2.26,0,0,1,463.71,55.34Z"/><path class="cls-1" d="M388,37.79c4-1.88,13.53-3.94,17.79-2.38a9.83,9.83,0,0,1,3.51,3c2.33,3.74,4.1,7.68,3.2,12.24-3.64,18.49-7.33,37-11,55.64-.42.26-.95.61-1.49.91l-59.61,33.2c-.87.48-1.71,1.17-2.88.15.46-.5.86-1,1.29-1.4,5.49-5.6,10.7-11.5,16.56-16.67,3.58-3.15,8.14-5.2,12.28-7.69,8.29-5,16.6-9.94,25-15-2.05-4.41-4.1-8.71-6.05-13-4.21-9.35-8.36-18.73-12.58-28.08-1-2.25-1.91-4.57-2.85-6.85-1.58-3.85-3.76-2.78-6.94-1-1.45,1.21-4.57,3.3-5.18,4l-2-10.2c-1.42-5.18.26-6.28,4.41-8.58a14.39,14.39,0,0,1,9.29-1.5c3.65.59,5.13,1.72,6,5.35,2.45,9.76,4.65,19.59,7.34,29.28,2.55,9.21,7.47,20,11.78,28.5,2.15-.86,4.4-3.83,4.4-3.83s0-3.64.09-5.79c.25-8.66,1.27-17.28,1.27-25.95a55.28,55.28,0,0,0-.62-7,6.61,6.61,0,0,0-4.12-5.53c-2.35-1-3.51,1.06-4.87,2.41Z"/><path class="cls-1" d="M187.58,57.68c-.35-5.45-5-6.08-9.86-4.46A23,23,0,0,0,174,55.31c-.8-4.52-1.72-8.67-2.23-12.87-.29-2.42,3.65-5.58,6.78-6C188.72,35,193.83,41,195.44,50.74c1.1,6.62-.95,12.85-1.9,19.21-1.6,10.77-2.86,21.54-2,32.46a3.47,3.47,0,0,1-1.74,3.3l-54.93,36.14-6.07,4a22.22,22.22,0,0,1,4.42-7.54c4.78-6,5.18-6.46,9.94-12.45a8.7,8.7,0,0,1,2.42-1.9l31-19c.29-.18.55-.4.83-.6-4.65-12.37-9.24-24.68-13.93-36.95-1.37-3.6-2.35-7.36-4.32-10.71-3.15-5.38-5.44-6.92-10.88-4.08-.72.37-4.49.67-5.48,1.1-.57-5-1.24-9.85-1.59-14.7-.16-2.2,2.14-2.58,3.6-3.16,7.71-3.1,15.66,1.17,18,9.06,5.37,18.38,11,36.69,16.46,55,.14.46.34.9.64,1.68,2.19-1.87,5.29-3.59,7.28-5.41"/><path class="cls-1" d="M22.81,92.3H68.05c1-2.78.85-5.71,1.17-8.54a181.69,181.69,0,0,0,1.45-25.32,23.84,23.84,0,0,0-1-5.26c-1.39-5.45-6.86-5.81-11.49-3.71-5.95,2.69-9.53,7.27-10.38,13.84a3,3,0,0,1-.16.59,3.12,3.12,0,0,1-.41.48C46.17,59.2,45,54.21,44.07,49.16c-.53-2.91,1.18-5,3.46-6.57,3.19-2.16,6.75-3.63,10.18-5.36,8.28-4.16,14,1.62,17,8.17S76.17,58.86,76,65.69c-.25,8.71-1.8,17.24-2.79,25.85-.64,5.54-4.79,8.25-8.56,11.47-3.32,2.83-6.91,3.37-11.05,3.31-12.42-.17-24.84-.07-37.25,0-1.83,0-3.49-.22-4.35-2.07s.31-3.46,1.61-4.51c2.08-1.66,3.56-3.81,5.34-5.63A320,320,0,0,0,14,39.62c.58-.83,1-1.29,1.74-1L28,44.15c-3.74,5.91-3.28,12.16-4.43,18.34-1.69,9.05-.29,18.62-.9,27.73A14.84,14.84,0,0,0,22.81,92.3Z"/><path class="cls-1" d="M87.59,7.41c2.2,0,4,0,5.72,0,5.1-.17,8.24,3.54,7.69,8.61-.66,6.12-3.52,11.64-4.41,17.67-.13.89-.27,1.78-.39,2.57,1.53,1.56,3.15.7,4.45.35a49.8,49.8,0,0,1,19-.91A13,13,0,0,1,129.06,41a8.07,8.07,0,0,1,1.67,5.81c-.37,3.94-.86,7.87-1.27,11.81s-.82,7.86-1.22,11.83c-8.28,6.49-16.46,13-24.81,19.37a7.19,7.19,0,0,0-3.1,6.55c.09,2.18.1,4.36.09,6.54,0,1.64-.45,3.18-2.35,3.34-2.13.18-4.36.25-5.37-2.35a7.16,7.16,0,0,1,.14-5.2c1.57-4.08,2-8.83,5.79-11.71s7.74-5.3,11.62-7.93l14.19-9.61c0-4,.13-8.22,0-12.4A4.37,4.37,0,0,0,121,53a12.26,12.26,0,0,0-9.68.62c-6.73,3.49-13.69,3.08-20.35-.28-2.48-1.25-3.08-4.1-3.22-6.78-.4-7.41,1.92-14.26,4.5-21,.63-1.65,1.18-3.33,1.85-4.95,1.45-3.5-.26-5.92-2.6-8.21A15.8,15.8,0,0,1,87.59,7.41Z"/><path class="cls-1" d="M429.49,52.61V36.07c3.79-2.25,12.62-2.77,15.41,1,1.68,2.28,3,4.59,3,7.65.16,14.23.42,28.46.51,42.69a56.66,56.66,0,0,1-.94,10.79c-.28,1.54-.84,2.71-2.41,3.21a17.31,17.31,0,0,0-3.73,2.1,18,18,0,0,1-13.95,2.32c-2.34-.49-4.65-1-7-.37-.59.16-1.22.13-2-.83,1-2.23,2-4.64,3.11-7.05,1.49-3.37,3-6.7,4.44-10.11.82-2,1.92-2.67,3.75-1.73a14.39,14.39,0,0,0,9.06,1.6,5.25,5.25,0,0,0,4.35-5.55c-.44-9.08-.3-18.19-1.26-27.25-.33-3.1-2.35-4.14-4.36-5.19a4.27,4.27,0,0,0-5.43.92C431.36,51,430.65,51.55,429.49,52.61Z"/><path class="cls-1" d="M221.65,106.63c-1.47-.35-1.24-1.21-1.27-1.91q-.76-22.29-1.54-44.58a34.64,34.64,0,0,0-.55-5c-.68-3.79-3.35-5.17-6.73-3.47a28.91,28.91,0,0,0-3.18,2.24L205.8,40.77c4.54-3.35,9.53-5.5,15.18-4.82,3.65.44,6.11,5,6.34,10.85.36,9.36-.61,18.68-.88,28-.19,6.26-.44,12.51-.92,18.75C225.18,98.17,222.85,102.2,221.65,106.63Z"/><path class="cls-1" d="M236.42,42c3.34-6.17,5.87-6.71,11.6-6.17,6.3,2.46,9.41,6,9.33,13.13-.08,7.51-.64,15-1,22.5s-.27,15.18-1.18,22.67c-.51,4.18-2.64,8.16-4,12.21-1.3-.38-1.21-1.13-1.24-1.81q-.78-16.93-1.54-33.86c-.22-5-.39-9.95-.64-14.92a8.38,8.38,0,0,0-.61-2.75c-.84-2.08-2.25-3-4.45-1.78-1.26.7-2.48,1.46-3.75,2.22"/><path class="cls-1" d="M528.46,44.08a1.73,1.73,0,0,1,.37-1.44c3.87-3.1,7.48-6.62,12.91-6.94,5.69-.34,9.93,5.87,10,10.42.16,6.45-3.22,11.14-7.24,15.61-1.39,1.54-2.63,3.22-3.95,4.85a2.78,2.78,0,0,1-2.41-1.2c-.09-1.14.71-1.82,1.34-2.53a13.51,13.51,0,0,0,3.24-8.63c.1-2.15-1.16-3.71-3-3.74A10.18,10.18,0,0,0,533.17,53Z"/></svg>