<?xml version="1.0" encoding="utf-8"?>
<!-- Generator: Adobe Illustrator 24.2.0, SVG Export Plug-In . SVG Version: 6.00 Build 0)  -->
<svg version="1.1" id="eng_blck" xmlns="http://www.w3.org/2000/svg" xmlns:xlink="http://www.w3.org/1999/xlink" x="0px" y="0px"
	 viewBox="0 0 561.4 229.1" style="enable-background:new 0 0 561.4 229.1;" xml:space="preserve">
<g id="Pmuk4K">
	<path d="M480.6,125.1c1.1,4.2,0.5,5.1-1.1,8.6c-3.5,7.5-8.6,13.9-16.5,17c-7.7,3.1-15.3,1.4-22.5-2.5c-2.5-1.2-4.8-2.7-6.9-4.5
		c-8.9-7.8-10.3-17.9-9.1-28.9c0.8-7.9,3.9-15.3,9.1-21.4c4.8-5.4,11.1-9.9,18.4-11.3c5.5-1.1,11,1.2,16,3.5
		c7.4,3.4,10.9,9.8,12.3,17.6c0.7,4.1,0.9,8.2,0.6,12.3h-42c-1,5.7-1.4,11.1,1.2,16.2c1.5,3,2.8,6.2,5.5,8.5c5.9,5,13.6,3.6,17.9-3
		c3-4.7,3.3-6.7,2.8-12.2L480.6,125.1z M440.5,111.3h25.6c0.2-9.9,0-11.5-2.4-17s-8.1-7.3-13.1-4C443.3,95.2,441.7,103,440.5,111.3
		L440.5,111.3z"/>
	<path d="M271.5,124.8c-0.2,8.3-3.1,15.6-9.4,20.5c-7.3,5.6-15.3,9.8-24.9,8.4c-6.6-1-13-3.5-17.8-8.4c-2.5-2.5-3.1-6.2-4.1-9.6
		c-3.9-12.4-2.2-25.9,4.8-36.9c5.5-9.2,13.6-14.3,24.2-15.2c4.4-0.3,8.8,0.8,12.5,3.3c7.8,4.9,13.3,11.4,14.4,20.9
		c0.3,2.4,0.9,3.7-0.1,7.6c-13.9,0-29.7-0.1-44-0.1c-0.6,3.7-0.6,7.5-0.1,11.2c0.6,4.7,1.4,9.2,3.7,13.5c5.1,9.6,17.2,8.1,22.3,0.6
		c2.5-3.7,4.1-9.4,4.8-13.7c0.3-2.2,0.2-2.1,0.2-2.1 M227.5,110.2c8.5,0,16.9,0,25.4,0c1.2,0,4.7,0,4.7,0c0.4-7.4-3.4-13-7.2-17
		c-3-3.2-7.6-2.8-11.5-1.1c-4.6,2-6.9,6.4-9.2,10.6C228.5,105,227.2,107.3,227.5,110.2L227.5,110.2z"/>
	<path d="M161,153.6h-11.5c0-7.6,0-15,0-22.4c0-11.9,0-23.8-0.1-35.7c0-2.1,0.8-3.1,2.5-4.5c10.5-8.6,22.6-8.2,34.7-5.8
		c6.6,1.3,10.8,5.8,13.2,12.6c2.4,8.8,2.9,19.6,2.8,31.5c-0.6,8-1,16-1.5,24.2h-12v-26.7c0-6.7,0-13.3,0-20c0-6.5-4.9-12-11.4-12.6
		c-2.7-0.2-5.4-0.3-8.1-0.3c-5.3,0-8.1,3.4-8.1,8.7c0.1,16.6,0,33.3,0,49.9C161.2,152.9,161.1,153.3,161,153.6z"/>
	<path d="M507.2,152.4h-12.5c0-46.2,0-94.4,0-141.2c4.3,4.9,8.1,9.2,12,13.7c0.5,0.7,0.7,1.7,0.6,2.6c0,40.3,0,80.7,0,121
		C507.2,149,507.2,151.7,507.2,152.4z"/>
	<path d="M11.5,220.5c-1.4-1.4-2.6-3-3.5-4.7c10.5-20.4,22-40.3,32-60.9c-9.8-19.8-19.5-52.3-29.4-72.2h18.6
		c4.4,17,11.6,47.2,16.2,65.2c10.5-17.9,25.1-48.1,35.2-65.3c2.3-0.2,4.4-0.5,7.3,0.4C63.9,124.6,35.5,179,11.5,220.5z"/>
	<path d="M125.3,124.7c5.3,0,13.5-0.1,13.5-0.1c0,1.7-0.2,3.4-0.5,5c-3.5,10.4-8.7,19.1-20.6,22.1c-4.8,1.2-9.5,3.1-14.3,1.6
		c-7.5-2.3-14.1-5.4-17.5-13.8c-3-7.5-4.2-12.9-2.5-19.5c1.4-5.4,2.4-11,4.7-16c3.1-6.9,8.2-12.6,14.5-16.7
		c5.5-3.7,12.4-4.8,18.8-2.9c6,1.6,9.3,5.6,12.9,9.8c2.7,3.3,4.2,7.5,4.3,11.7c0.2,3,0,6.1-0.3,9.1c0,0-5.8,0.1-10.3,0.1
		c-9.4,0-18.8,0-28.1,0c-1.1,0-3-0.1-3-0.1c-0.5,1.8-0.9,3.6-1.1,5.4c-0.6,6.3,0.1,12.4,3.3,18.1c2.9,5.1,5.7,7.9,11.5,7.7
		s9.8-3.2,12.4-8.5C125.2,133.4,125.3,130.6,125.3,124.7z M126,110.3c0.2-5.6,0.5-10.8-2.6-15.5c-3.2-4.9-10.8-6.8-15.6-3.3
		c-4.4,2.9-9.7,16.5-9.2,18.9H126z"/>
	<path d="M536,152.4h-10.9c0-22.1,0.5-41,0.5-63.4h-8.3v-5.7c2.4-1,4.9,0,7.2-0.7c1.1-7.1-1.1-14.5,1.7-22l9.8,10.5v10.6h15.6v7
		h-15.1C536.5,111.3,536,130.2,536,152.4z"/>
	<path d="M364.3,82.6H380c5.2,19.6,10.4,39.2,15.9,59.9l23.7-59.9h4.5l-27.1,71.6C392.8,150.1,363.3,85.1,364.3,82.6z"/>
</g>
</svg>
